<?xml version="1.0" encoding="utf-8"?>
<svg viewBox="0 0 180 80" xmlns="http://www.w3.org/2000/svg">
  <path d="M 13.58 58.464 C 12.54 58.464 11.65 58.094 10.91 57.354 C 10.17 56.614 9.8 55.724 9.8 54.684 L 9.8 19.044 C 9.8 18.284 10.06 17.634 10.58 17.094 C 11.1 16.554 11.74 16.284 12.5 16.284 C 13.26 16.284 13.91 16.554 14.45 17.094 C 14.99 17.634 15.26 18.284 15.26 19.044 L 15.26 53.004 L 34.88 53.004 C 35.64 53.004 36.29 53.274 36.83 53.814 C 37.37 54.354 37.64 55.004 37.64 55.764 C 37.64 56.524 37.37 57.164 36.83 57.684 C 36.29 58.204 35.64 58.464 34.88 58.464 L 13.58 58.464 Z M 43.038 58.764 C 42.238 58.764 41.588 58.504 41.088 57.984 C 40.588 57.464 40.338 56.824 40.338 56.064 C 40.338 55.744 40.438 55.344 40.638 54.864 L 55.938 18.744 C 56.258 18.024 56.708 17.434 57.288 16.974 C 57.868 16.514 58.578 16.284 59.418 16.284 L 60.018 16.284 C 60.858 16.284 61.568 16.514 62.148 16.974 C 62.728 17.434 63.178 18.024 63.498 18.744 L 78.798 54.864 C 78.998 55.344 79.098 55.744 79.098 56.064 C 79.098 56.824 78.848 57.464 78.348 57.984 C 77.848 58.504 77.198 58.764 76.398 58.764 C 75.838 58.764 75.328 58.614 74.868 58.314 C 74.408 58.014 74.058 57.604 73.818 57.084 L 69.918 47.724 L 49.518 47.724 L 45.618 57.084 C 45.378 57.604 45.028 58.014 44.568 58.314 C 44.108 58.614 43.598 58.764 43.038 58.764 Z M 59.718 23.244 L 51.618 42.744 L 67.818 42.744 L 59.718 23.244 Z M 105.616 59.064 C 101.416 59.064 97.736 58.144 94.576 56.304 C 91.416 54.464 88.976 51.924 87.256 48.684 C 85.536 45.444 84.636 41.724 84.556 37.524 C 84.636 33.324 85.536 29.604 87.256 26.364 C 88.976 23.124 91.416 20.584 94.576 18.744 C 97.736 16.904 101.416 15.984 105.616 15.984 C 109.816 15.984 113.486 16.904 116.626 18.744 C 119.766 20.584 122.206 23.134 123.946 26.394 C 125.686 29.654 126.596 33.364 126.676 37.524 C 126.596 41.684 125.686 45.394 123.946 48.654 C 122.206 51.914 119.766 54.464 116.626 56.304 C 113.486 58.144 109.816 59.064 105.616 59.064 Z M 105.616 53.964 C 108.816 53.964 111.596 53.244 113.956 51.804 C 116.316 50.364 118.116 48.404 119.356 45.924 C 120.596 43.444 121.216 40.644 121.216 37.524 C 121.216 34.404 120.596 31.604 119.356 29.124 C 118.116 26.644 116.316 24.684 113.956 23.244 C 111.596 21.804 108.816 21.084 105.616 21.084 C 102.376 21.084 99.586 21.804 97.246 23.244 C 94.906 24.684 93.116 26.644 91.876 29.124 C 90.636 31.604 90.016 34.404 90.016 37.524 C 90.016 40.644 90.636 43.444 91.876 45.924 C 93.116 48.404 94.906 50.364 97.246 51.804 C 99.586 53.244 102.376 53.964 105.616 53.964 Z M 154.274 59.064 C 150.274 59.064 146.684 58.194 143.504 56.454 C 140.324 54.714 137.824 52.214 136.004 48.954 C 134.184 45.694 133.274 41.884 133.274 37.524 C 133.274 33.164 134.184 29.354 136.004 26.094 C 137.824 22.834 140.324 20.334 143.504 18.594 C 146.684 16.854 150.274 15.984 154.274 15.984 C 156.994 15.984 159.424 16.304 161.564 16.944 C 163.704 17.584 165.834 18.504 167.954 19.704 C 168.834 20.184 169.274 20.944 169.274 21.984 C 169.274 22.584 169.054 23.114 168.614 23.574 C 168.174 24.034 167.594 24.264 166.874 24.264 C 166.474 24.264 166.114 24.184 165.794 24.024 C 164.034 23.104 162.314 22.404 160.634 21.924 C 158.954 21.444 157.014 21.204 154.814 21.204 C 151.374 21.204 148.444 21.914 146.024 23.334 C 143.604 24.754 141.784 26.694 140.564 29.154 C 139.344 31.614 138.734 34.404 138.734 37.524 C 138.734 40.644 139.344 43.434 140.564 45.894 C 141.784 48.354 143.604 50.294 146.024 51.714 C 148.444 53.134 151.374 53.844 154.814 53.844 C 157.014 53.844 158.954 53.604 160.634 53.124 C 162.314 52.644 164.034 51.944 165.794 51.024 C 166.114 50.864 166.474 50.784 166.874 50.784 C 167.594 50.784 168.174 51.004 168.614 51.444 C 169.054 51.884 169.274 52.424 169.274 53.064 C 169.274 54.104 168.834 54.864 167.954 55.344 C 165.834 56.544 163.704 57.464 161.564 58.104 C 159.424 58.744 156.994 59.064 154.274 59.064 Z" style="fill: rgb(255,255,255); white-space: pre;"/>
</svg>