<?xml version="1.0" encoding="utf-8"?>
<!-- Generator: Adobe Illustrator 23.1.1, SVG Export Plug-In . SVG Version: 6.00 Build 0)  -->
<svg version="1.1" xmlns="http://www.w3.org/2000/svg" xmlns:xlink="http://www.w3.org/1999/xlink" x="0px" y="0px"
	 viewBox="0 0 1280 1024" style="enable-background:new 0 0 1280 1024;" xml:space="preserve">
<style type="text/css">
	.st0{fill:#231F20;}
	.st1{fill:#E89F8D;}
	.st2{clip-path:url(#SVGID_2_);fill:none;stroke:#FFFFFF;stroke-miterlimit:10;}
	.st3{fill:#E89F8E;}
	.st4{clip-path:url(#SVGID_4_);fill:none;stroke:#FFFFFF;stroke-miterlimit:10;}
	.st5{fill:#DCDDDE;stroke:#FFFFFF;stroke-width:0.5;stroke-miterlimit:10;}
	.st6{opacity:0.3;}
	.st7{fill:none;stroke:#231F20;stroke-width:0.5;stroke-miterlimit:10;}
	.st8{fill:none;stroke:#696A6D;stroke-width:0.5;stroke-miterlimit:10;}
	.st9{opacity:0.4;}
	.st10{fill:none;stroke:#504A4B;stroke-miterlimit:10;}
	.st11{opacity:0.8;}
	.st12{fill:none;stroke:#E89F8D;stroke-miterlimit:10;}
	.st13{clip-path:url(#SVGID_20_);fill:none;stroke:#FFFFFF;stroke-width:2;stroke-miterlimit:10;}
	.st14{fill:none;stroke:#FFFFFF;stroke-width:2;stroke-miterlimit:10;}
	.st15{clip-path:url(#SVGID_22_);fill:none;stroke:#FFFFFF;stroke-width:2;stroke-miterlimit:10;}
	.st16{clip-path:url(#SVGID_24_);fill:none;stroke:#FFFFFF;stroke-width:2;stroke-miterlimit:10;}
	.st17{clip-path:url(#SVGID_26_);fill:none;stroke:#FFFFFF;stroke-width:2;stroke-miterlimit:10;}
</style>
<g id="Vrstva_3">
	<rect class="st0" width="1280" height="1024"/>
</g>
<g id="Vrstva_1">
</g>
<g id="Vrstva_2">
	<g class="st11">
		<polyline class="st12" points="441,-46.6 24.71,486.49 420.82,1051.69 		"/>
		<g>
			<line class="st12" x1="352.49" y1="-218.03" x2="-445.55" y2="863.89"/>
			<line class="st12" x1="364.8" y1="1251" x2="-166.51" y2="485.58"/>
		</g>
	</g>
	<g class="st11">
		<polyline class="st12" points="43.79,-68.77 522.54,480.6 67,1063.06 		"/>
		<polyline class="st12" points="1737.79,-68.43 1259.04,480.94 1714.58,1063.4 		"/>
		<g>
			<line class="st12" x1="147.3" y1="-245.1" x2="1065.07" y2="869.86"/>
			<path class="st12" d="M147.59,1250.13C183,1202,220,1157,257,1108c3-4,7-7,10-11c105-137,200-257,305-394c11-15,21-28,32-43
				c8-10,16-19,24-29c35-48,68-88,104-135c4-5,7-11,12.16-16"/>
		</g>
		<g>
			<line class="st12" x1="1636" y1="-245.1" x2="718.23" y2="869.86"/>
			<line class="st12" x1="1650.16" y1="1268.79" x2="1039.14" y2="480"/>
		</g>
	</g>
</g>
<g id="Vrstva_4">
</g>
</svg>
