<?xml version="1.0" encoding="utf-8"?>
<!-- Generator: Adobe Illustrator 23.1.1, SVG Export Plug-In . SVG Version: 6.00 Build 0)  -->
<svg version="1.1" xmlns="http://www.w3.org/2000/svg" xmlns:xlink="http://www.w3.org/1999/xlink" x="0px" y="0px"
	 viewBox="0 0 1280 1024" style="enable-background:new 0 0 1280 1024;" xml:space="preserve">
<style type="text/css">
	.st0{fill:#231F20;}
	.st1{fill:#E89F8D;}
	.st2{clip-path:url(#SVGID_2_);fill:none;stroke:#FFFFFF;stroke-miterlimit:10;}
	.st3{fill:#E89F8E;}
	.st4{clip-path:url(#SVGID_4_);fill:none;stroke:#FFFFFF;stroke-miterlimit:10;}
	.st5{fill:#DCDDDE;stroke:#FFFFFF;stroke-width:0.5;stroke-miterlimit:10;}
	.st6{opacity:0.3;}
	.st7{fill:none;stroke:#231F20;stroke-width:0.5;stroke-miterlimit:10;}
	.st8{fill:none;stroke:#696A6D;stroke-width:0.5;stroke-miterlimit:10;}
	.st9{opacity:0.4;}
	.st10{fill:none;stroke:#504A4B;stroke-miterlimit:10;}
	.st11{opacity:0.8;}
	.st12{fill:none;stroke:#E89F8D;stroke-miterlimit:10;}
	.st13{clip-path:url(#SVGID_20_);fill:none;stroke:#FFFFFF;stroke-width:2;stroke-miterlimit:10;}
	.st14{fill:none;stroke:#FFFFFF;stroke-width:2;stroke-miterlimit:10;}
	.st15{clip-path:url(#SVGID_22_);fill:none;stroke:#FFFFFF;stroke-width:2;stroke-miterlimit:10;}
	.st16{clip-path:url(#SVGID_24_);fill:none;stroke:#FFFFFF;stroke-width:2;stroke-miterlimit:10;}
	.st17{clip-path:url(#SVGID_26_);fill:none;stroke:#FFFFFF;stroke-width:2;stroke-miterlimit:10;}
</style>
<g id="Vrstva_3">
	<rect class="st1" width="1283" height="1024"/>
	<g>
		<defs>
			<rect id="SVGID_1_" x="-333" width="2243" height="1506"/>
		</defs>
		<clipPath id="SVGID_2_">
			<use xlink:href="#SVGID_1_"  style="overflow:visible;"/>
		</clipPath>
		<path class="st2" d="M839.12,1499.38l-445.1-656.15 M828.8,240.06l-668.54,927.48 M-265.94,1499.38l445.09-656.15 M-255.62,240.06
			l668.54,927.48 M902.96,387.02L554.22,844.01l331.83,484.52 M-331.02,386.74L17.72,843.72l-331.83,484.52"/>
		<path class="st2" d="M1844.18,1503.64l-445.09-656.15 M1833.87,244.31l-668.54,927.48 M739.12,1503.64l445.09-656.15
			 M749.44,244.31l668.54,927.48 M1908.02,391.27l-348.74,456.99l331.83,484.52 M674.04,390.99l348.74,456.99l-331.83,484.52"/>
	</g>
	<rect x="603.6" y="151.55" class="st3" width="393.98" height="270.55"/>
</g>
<g id="Vrstva_1">
</g>
<g id="Vrstva_2">
</g>
<g id="Vrstva_4">
</g>
</svg>
